<svg height="512pt" viewBox="0 0 512 511" width="512pt" xmlns="http://www.w3.org/2000/svg"><path d="m256.003906 120.371094c-.089844 0-.179687 0-.269531 0-75.015625.144531-135.964844 61.292968-135.863281 136.316406.046875 33.292969 12.242187 65.324219 34.339844 90.195312 14.746093 16.589844 22.863281 37.570313 22.863281 59.078126v105.582031h157.851562v-105.15625c0-21.726563 8.171875-42.917969 23.007813-59.671875 22.050781-24.894532 34.195312-56.933594 34.195312-90.214844 0-36.410156-14.191406-70.628906-39.964844-96.347656-25.707031-25.660156-59.847656-39.78125-96.160156-39.78125zm-48.984375 361.230468v-40.082031h97.960938v40.082031zm48.746094-209.871093c-8.269531 0-14.996094-6.726563-14.996094-14.996094s6.726563-14.996094 14.996094-14.996094 14.996094 6.726563 14.996094 14.996094-6.726563 14.996094-14.996094 14.996094zm79.753906 55.128906c-19.695312 22.234375-30.539062 50.476563-30.539062 79.527344v5.1875h-34.246094v-112.472657c17.441406-6.179687 29.96875-22.835937 29.96875-42.367187 0-24.777344-20.160156-44.9375-44.941406-44.9375s-44.9375 20.160156-44.9375 44.9375c0 19.53125 12.527343 36.183594 29.964843 42.367187v112.472657h-33.769531v-5.613281c0-28.847657-10.804687-56.894532-30.425781-78.972657-17.234375-19.390625-26.742188-44.375-26.777344-70.34375-.082031-58.519531 47.460938-106.21875 105.976563-106.328125 28.433593-.058594 55.117187 10.964844 75.214843 31.027344 20.105469 20.0625 31.175782 46.753906 31.175782 75.15625 0 25.960938-9.46875 50.949219-26.664063 70.359375zm0 0"/><path d="m240.792969.5h29.945312v79.902344h-29.945312zm0 0"/><path d="m140.761719 27.425781 39.953125 69.195313-25.933594 14.972656-39.949219-69.195312zm0 0"/><path d="m41.664062 115.734375 69.195313 39.949219-14.972656 25.933594-69.195313-39.953126zm0 0"/><path d="m0 241.761719h79.902344v29.945312h-79.902344zm0 0"/><path d="m41.894531 397.671875-14.972656-25.929687 69.195313-39.953126 14.972656 25.933594zm0 0"/><path d="m470.347656 397.269531-69.195312-39.953125 14.972656-25.929687 69.195312 39.949219zm0 0"/><path d="m432.097656 241.292969h79.902344v29.941406h-79.902344zm0 0"/><path d="m470.101562 115.320312 14.96875 25.929688-69.195312 39.953125-14.972656-25.933594zm0 0"/><path d="m356.816406 111.363281-25.929687-14.96875 39.953125-69.199219 25.929687 14.972657zm0 0"/></svg>